<?xml version="1.0" standalone="no"?>
<!DOCTYPE svg PUBLIC "-//W3C//DTD SVG 20010904//EN"
 "http://www.w3.org/TR/2001/REC-SVG-20010904/DTD/svg10.dtd">
<svg version="1.0" xmlns="http://www.w3.org/2000/svg"
 width="1024.000000pt" height="1024.000000pt" viewBox="0 0 1024.000000 1024.000000"
 preserveAspectRatio="xMidYMid meet">

<g transform="translate(0.000000,1024.000000) scale(0.100000,-0.100000)"
fill="#000000" stroke="none">
<path d="M5747 9096 c-31 -13 -69 -32 -84 -41 -21 -14 -51 -18 -152 -19 -110
-1 -137 -5 -209 -30 -463 -158 -997 -668 -1323 -1266 -200 -367 -322 -699
-460 -1250 -9 -34 -14 -41 -20 -30 -5 8 -32 53 -60 100 -154 259 -287 412
-456 523 -92 60 -92 60 -127 141 -108 253 -135 428 -136 892 0 274 -25 361
-148 515 -96 122 -211 212 -346 274 -99 45 -166 60 -276 59 -156 0 -273 -46
-358 -139 -98 -108 -134 -227 -135 -450 0 -194 19 -244 154 -406 168 -202 249
-417 294 -781 23 -194 20 -293 -11 -375 -72 -188 -89 -307 -81 -576 5 -211 22
-329 83 -582 52 -214 110 -370 229 -610 l103 -210 -18 -126 c-25 -167 -37
-335 -50 -669 -6 -151 -15 -318 -21 -370 -20 -191 -83 -392 -159 -510 -88
-137 -251 -237 -472 -291 -137 -34 -162 -50 -179 -113 -15 -54 2 -106 44 -142
44 -37 198 -109 294 -136 102 -30 313 -32 411 -5 148 40 300 123 397 215 25
24 45 38 46 30 0 -7 2 -33 5 -58 47 -443 89 -619 209 -865 115 -238 280 -429
442 -513 44 -23 89 -42 98 -42 9 0 14 -3 12 -7 -6 -10 77 -18 183 -17 212 2
401 122 527 334 88 147 132 288 152 485 9 78 41 522 41 558 0 4 74 -60 164
-143 202 -187 332 -289 551 -434 357 -237 644 -375 997 -480 388 -116 582
-146 1003 -153 364 -6 537 7 815 63 570 113 837 221 1025 413 98 100 106 131
74 273 -22 99 -23 101 -5 186 49 235 10 291 -323 459 -108 55 -260 129 -338
163 l-141 64 60 65 c66 73 119 172 143 271 23 91 30 316 15 436 -45 368 -194
769 -403 1084 -314 474 -798 778 -1242 780 l-59 0 44 46 c128 131 346 250 564
309 50 13 249 56 441 94 855 171 1388 283 1437 302 32 13 47 50 55 135 5 59 4
63 -22 80 -23 15 -34 16 -78 7 -29 -6 -53 -10 -55 -8 -2 2 11 80 28 175 17 94
30 183 28 197 -2 14 -15 35 -29 45 -25 19 -27 19 -124 -1 -121 -26 -134 -26
-130 -3 41 200 57 324 47 347 -24 52 -39 51 -317 -4 -142 -28 -260 -50 -262
-48 -2 2 6 51 17 108 26 135 26 160 -3 187 -28 27 -49 27 -160 3 l-87 -19 0
22 c0 13 11 83 25 157 32 175 32 202 -1 228 -15 12 -36 21 -48 21 -11 0 -237
-43 -501 -95 -264 -52 -490 -95 -502 -95 l-22 0 24 71 c41 119 57 216 50 294
-20 230 -128 367 -305 391 -59 8 -62 12 -79 111 -30 172 -166 258 -333 209
-90 -26 -95 -24 -127 47 -15 34 -40 76 -54 93 -63 75 -189 96 -300 50z m140
-263 c37 -83 76 -128 135 -157 60 -30 120 -33 194 -11 83 25 92 22 99 -32 26
-184 91 -262 235 -281 55 -8 68 -14 96 -45 31 -33 60 -105 52 -129 -2 -6 -45
-25 -96 -43 -427 -153 -799 -506 -1061 -1006 -170 -325 -328 -797 -410 -1229
-64 -336 -95 -691 -95 -1086 l-1 -311 -30 29 c-16 17 -73 61 -126 99 -53 37
-99 75 -103 84 -3 9 -6 77 -6 150 0 148 -3 157 -65 174 -19 5 -92 19 -162 31
-144 24 -140 23 -259 104 -98 66 -211 121 -328 160 -92 31 -259 66 -310 66
l-36 0 0 54 c0 74 26 319 56 521 147 1001 484 1782 999 2314 227 235 461 399
687 482 79 30 88 31 190 25 125 -6 181 6 255 58 26 19 52 35 56 35 4 1 20 -25
34 -56z m-3868 -83 c35 -6 91 -23 125 -39 105 -48 266 -190 266 -235 0 -21
-102 -66 -174 -77 -96 -13 -218 11 -327 67 -44 22 -71 55 -51 62 5 1 7 15 4
31 -3 23 2 33 22 46 88 58 206 31 341 -79 27 -23 59 -52 71 -66 20 -22 24 -23
40 -10 14 12 16 12 9 1 -5 -10 -4 -12 4 -7 6 4 8 13 4 19 -39 66 -124 137
-224 188 -54 28 -77 34 -150 37 -72 4 -92 1 -125 -16 -59 -30 -70 -46 -51 -76
9 -13 24 -31 34 -41 13 -13 14 -20 5 -23 -7 -2 -9 -9 -6 -14 4 -7 2 -8 -4 -4
-6 4 -8 14 -5 22 5 13 1 15 -18 10 -13 -3 -18 -3 -11 0 17 8 15 25 -3 18 -8
-4 -17 1 -21 10 -3 9 -10 14 -14 11 -4 -2 -15 4 -25 15 -40 44 37 123 143 146
73 16 66 16 141 4z m-164 -482 c122 -61 171 -72 315 -72 123 0 141 2 203 27
38 15 81 36 97 47 15 11 30 20 33 20 3 0 7 -156 10 -347 5 -364 11 -419 59
-583 30 -102 99 -269 139 -335 29 -48 41 -58 89 -76 197 -74 345 -238 574
-635 l87 -152 -12 -71 -12 -71 -47 0 c-59 0 -203 -25 -267 -46 -90 -29 -248
-113 -323 -171 -84 -65 -130 -110 -203 -198 -27 -33 -53 -62 -56 -65 -4 -3
-26 -34 -48 -69 l-41 -63 -35 108 c-86 267 -118 426 -152 749 -4 33 -9 70 -12
82 -6 27 -41 36 -70 17 -20 -12 -23 -23 -23 -77 0 -112 49 -435 85 -562 52
-180 71 -241 106 -328 l39 -98 -32 -74 -32 -74 -47 107 c-173 396 -263 867
-231 1208 12 125 17 143 92 349 20 53 22 72 16 165 -34 550 -147 896 -376
1151 -69 78 -85 109 -95 193 l-7 58 64 -45 c34 -24 86 -56 113 -69z m5863
-545 c-3 -21 -13 -90 -23 -154 -20 -129 -17 -159 21 -184 25 -16 36 -16 131
-5 57 7 106 11 109 8 3 -3 -2 -49 -11 -102 -8 -53 -15 -111 -15 -129 0 -38 28
-74 64 -83 13 -3 117 13 232 35 205 41 264 48 264 34 0 -5 -11 -74 -25 -154
-26 -162 -24 -195 18 -219 23 -13 35 -13 110 3 118 24 127 23 127 -10 0 -28
-26 -185 -35 -214 -4 -12 -84 -31 -348 -83 -188 -37 -526 -103 -752 -147 -714
-140 -1096 -215 -1602 -316 -271 -53 -495 -94 -498 -91 -20 20 79 499 161 781
56 191 189 507 214 507 5 0 22 -35 40 -77 124 -303 172 -380 227 -367 15 3 36
15 45 25 19 22 20 15 -36 162 -19 50 -23 69 -14 71 7 2 38 9 68 15 72 15 113
40 134 85 33 70 -16 156 -113 198 -38 17 -60 19 -126 14 -44 -3 -95 -8 -112
-12 -18 -3 -33 -3 -33 2 0 5 22 36 49 69 l50 61 148 28 c164 32 440 85 758
146 561 108 722 138 749 139 27 1 28 -1 24 -36z m-1558 -533 c17 -31 6 -42
-66 -64 -18 -5 -26 0 -43 27 -26 43 -26 45 2 50 59 11 96 7 107 -13z m338
-1250 c-120 -99 -243 -242 -312 -365 -89 -156 -145 -372 -146 -557 0 -32 -4
-58 -8 -58 -19 0 -166 -156 -208 -221 -50 -78 -104 -189 -104 -216 0 -38 -19
6 -34 79 -10 49 -16 129 -16 218 0 139 0 141 -24 151 -35 17 -75 3 -87 -29 -7
-17 -9 -68 -5 -137 5 -100 5 -108 -9 -84 -22 40 -52 160 -72 289 -14 92 -18
177 -18 427 0 171 3 314 7 318 3 4 82 22 175 41 92 18 179 37 192 40 27 8 28
10 -30 -76 -50 -75 -149 -274 -156 -315 -7 -42 24 -65 84 -65 24 0 66 -9 94
-19 58 -23 77 -19 85 16 8 29 0 36 -71 59 -27 9 -54 20 -59 25 -16 14 129 293
163 313 5 3 33 -5 63 -19 65 -30 79 -31 96 -4 11 18 11 24 -5 41 -10 11 -35
29 -55 39 -21 11 -38 23 -38 27 0 9 50 21 285 71 167 35 181 38 220 40 l30 1
-37 -30z m-3098 -167 c0 -16 -3 -45 -6 -65 -6 -35 -9 -38 -72 -58 -150 -49
-272 -130 -404 -269 -143 -151 -209 -286 -284 -586 -31 -120 -34 -145 -24
-172 9 -27 7 -52 -14 -145 -54 -242 -80 -492 -96 -903 -10 -269 -15 -300 -75
-458 -121 -312 -340 -466 -627 -441 -85 7 -89 13 -18 33 61 18 166 72 226 116
157 117 271 329 338 626 31 138 42 269 56 655 12 339 28 495 70 697 61 291
157 495 330 696 85 99 236 205 350 246 73 27 183 54 218 54 28 1 32 -2 32 -26z
m-24 -274 c-3 -17 -6 -51 -6 -75 l0 -43 -72 -22 c-165 -49 -281 -120 -399
-246 -77 -83 -74 -70 14 62 101 152 259 286 402 342 55 21 68 17 61 -18z
m3409 -104 c460 -117 848 -515 1080 -1110 144 -367 184 -778 94 -962 -56 -116
-153 -173 -243 -143 -67 22 -102 79 -171 285 -166 494 -319 769 -564 1016
-115 115 -204 175 -326 217 -277 97 -541 -37 -630 -319 -38 -121 -36 -156 11
-221 129 -177 375 -430 611 -630 289 -244 570 -395 1338 -718 193 -81 384
-163 425 -181 l74 -35 -82 -62 c-75 -57 -83 -67 -97 -116 -18 -62 -24 -199
-12 -302 l8 -71 -33 -7 c-240 -51 -513 -76 -816 -76 -469 0 -830 63 -1242 217
-407 152 -783 379 -1137 687 -147 127 -379 371 -425 447 -19 31 -19 32 3 88
109 276 282 528 393 575 19 8 37 19 40 25 16 25 -19 87 -86 153 -238 231 -537
202 -702 -70 -92 -152 -197 -498 -255 -842 -37 -219 -81 -603 -101 -885 -25
-352 -39 -448 -81 -560 -53 -143 -158 -268 -267 -322 -49 -24 -69 -28 -142
-28 -72 0 -93 4 -140 27 -122 60 -275 239 -360 421 -144 309 -201 660 -216
1337 -11 521 21 888 112 1252 61 245 119 369 223 476 84 87 163 138 271 176
81 29 93 31 240 31 129 0 168 -4 236 -22 123 -34 232 -84 345 -158 92 -60 229
-177 229 -195 0 -4 -26 -12 -57 -19 -266 -58 -506 -336 -653 -756 -73 -210
-136 -507 -147 -698 -7 -116 -3 -127 43 -127 44 0 53 19 68 155 44 382 168
766 317 987 99 147 220 255 316 284 52 16 160 18 182 5 11 -7 5 -14 -25 -29
-150 -77 -287 -223 -369 -394 -38 -78 -44 -128 -19 -152 37 -38 63 -18 121 95
117 225 264 348 429 357 97 5 169 -12 277 -66 76 -37 108 -62 182 -136 50 -50
122 -136 160 -191 101 -144 131 -167 169 -129 25 24 19 65 -23 155 -45 96 -97
273 -117 397 -7 47 -13 87 -11 88 5 5 233 44 257 44 24 0 31 -10 74 -110 68
-157 194 -350 227 -350 5 0 19 10 33 23 18 15 32 47 46 102 49 187 118 312
240 436 94 95 136 121 237 145 67 16 121 15 284 -2 52 -6 58 -4 64 15 8 27 1
37 -43 60 -57 29 -133 41 -254 41 l-111 0 6 72 c4 41 12 75 19 80 7 5 51 7 97
3 261 -18 492 -130 709 -346 205 -203 357 -464 452 -775 38 -124 50 -148 77
-152 38 -6 63 15 63 53 0 52 -95 316 -165 460 -251 511 -674 837 -1133 871
-89 7 -93 8 -88 29 14 55 37 95 59 100 91 20 282 11 402 -20z m-153 -962 c167
-79 359 -306 498 -588 59 -119 182 -425 195 -485 l7 -30 -49 28 c-297 176
-526 354 -763 592 -237 238 -277 308 -230 404 54 113 199 146 342 79z m-1844
-1444 c239 -244 349 -339 557 -483 256 -176 423 -270 670 -374 408 -173 760
-255 1206 -283 322 -19 748 12 1040 77 l66 15 37 -37 c20 -20 36 -38 36 -40 0
-7 -97 -48 -180 -77 -207 -71 -556 -140 -855 -167 -152 -14 -548 -14 -685 0
-744 76 -1412 366 -2000 869 -74 64 -155 137 -181 164 l-46 48 33 147 c39 171
85 352 91 352 2 0 97 -95 211 -211z m3812 -538 c0 -5 -6 -12 -12 -14 -8 -3 -6
-6 5 -6 9 -1 17 4 17 11 0 6 2 9 5 6 3 -3 -6 -41 -21 -84 -22 -66 -25 -91 -21
-149 3 -38 13 -90 22 -115 26 -73 27 -74 11 -95 -16 -20 -16 -19 -45 12 -45
48 -61 117 -61 258 l0 121 43 32 c44 33 57 38 57 23z"/>
<path d="M5326 8563 c-58 -31 -196 -130 -270 -193 -87 -74 -96 -98 -43 -123
162 -77 233 -107 251 -107 12 0 61 34 111 75 50 41 132 105 183 141 50 36 92
71 92 78 0 6 -10 18 -22 25 -51 33 -239 121 -255 121 -10 -1 -31 -8 -47 -17z"/>
<path d="M5709 8281 c-115 -81 -243 -193 -247 -216 -3 -22 23 -40 171 -120
106 -57 94 -59 246 58 58 46 130 100 159 122 28 21 52 45 52 51 0 21 -241 164
-277 164 -11 0 -57 -26 -104 -59z"/>
<path d="M4773 8103 c-64 -62 -183 -216 -183 -237 0 -26 2 -27 157 -91 62 -26
120 -45 130 -43 19 3 212 245 213 266 0 15 -240 132 -270 132 -10 0 -31 -12
-47 -27z"/>
<path d="M5253 7905 c-36 -25 -183 -214 -183 -235 0 -14 18 -27 63 -48 242
-113 267 -123 283 -114 22 12 194 214 194 228 0 6 -8 18 -17 26 -22 19 -293
158 -308 158 -6 0 -20 -7 -32 -15z"/>
<path d="M4424 7662 c-30 -24 -44 -55 -44 -95 0 -44 11 -51 175 -112 72 -26
227 -86 345 -132 356 -141 354 -140 394 -92 36 42 33 75 -8 113 -32 30 -71 48
-341 158 -149 61 -470 178 -487 178 -7 0 -23 -8 -34 -18z"/>
<path d="M4203 7170 c-11 -10 -29 -47 -42 -82 -52 -141 -111 -323 -111 -345 0
-33 42 -51 222 -95 62 -15 80 0 103 90 9 36 39 129 67 206 37 101 48 144 41
155 -10 17 -203 89 -240 90 -12 1 -30 -8 -40 -19z"/>
<path d="M4658 7038 c-18 -14 -105 -251 -134 -366 -18 -72 -18 -74 0 -88 11
-7 44 -21 75 -29 31 -9 115 -33 186 -54 172 -51 179 -53 198 -38 9 6 28 50 41
97 14 47 43 136 65 198 32 88 39 118 31 133 -6 10 -12 19 -14 19 -1 0 -85 29
-187 64 -220 76 -239 81 -261 64z"/>
<path d="M3974 6442 c-22 -14 -32 -51 -62 -222 -47 -268 -48 -275 -22 -293 31
-22 257 -64 271 -50 5 5 17 55 25 109 8 54 26 164 41 243 32 171 40 157 -112
195 -112 28 -124 30 -141 18z"/>
<path d="M4411 6311 c-11 -21 -53 -239 -71 -368 -14 -104 -8 -117 62 -133 29
-7 126 -30 216 -51 90 -21 169 -39 176 -39 29 0 45 38 61 144 9 60 25 156 35
213 20 108 19 127 -8 138 -37 15 -419 115 -439 115 -12 0 -27 -8 -32 -19z"/>
<path d="M3840 5657 c-49 -25 -67 -110 -30 -147 23 -23 52 -31 380 -105 140
-31 313 -70 383 -86 162 -37 189 -37 216 -3 34 43 24 115 -19 142 -11 6 -59
21 -107 32 -49 11 -135 31 -193 44 -231 54 -370 85 -470 105 -58 12 -112 24
-120 26 -8 3 -26 -1 -40 -8z"/>
<path d="M1780 8580 c0 -5 5 -10 10 -10 6 0 10 5 10 10 0 6 -4 10 -10 10 -5 0
-10 -4 -10 -10z"/>
<path d="M1870 8500 c0 -5 5 -10 11 -10 5 0 7 5 4 10 -3 6 -8 10 -11 10 -2 0
-4 -4 -4 -10z"/>
<path d="M1900 8488 c0 -6 3 -8 6 -5 4 3 18 -3 32 -13 13 -11 29 -20 35 -20 5
0 -7 11 -27 25 -42 28 -46 30 -46 13z"/>
<path d="M7142 7544 c-12 -8 -22 -20 -22 -25 0 -18 160 -336 175 -349 12 -10
42 -8 153 10 75 13 147 29 160 37 28 17 28 52 0 82 -19 22 -26 23 -82 16 -34
-5 -81 -9 -106 -9 l-44 -1 -51 102 c-27 56 -61 113 -74 127 -28 30 -75 34
-109 10z"/>
<path d="M6880 7504 c-144 -27 -170 -37 -169 -61 0 -10 40 -94 87 -188 l87
-170 40 1 c63 2 269 36 283 47 20 16 14 56 -14 84 -23 23 -31 25 -72 19 -126
-19 -152 -19 -152 -4 0 11 15 17 49 22 64 8 111 25 111 39 0 19 -39 77 -55 83
-8 3 -46 -2 -86 -10 -54 -13 -74 -14 -85 -5 -8 6 -14 15 -14 18 0 4 39 13 86
19 90 12 114 23 114 52 0 22 -53 80 -72 79 -7 -1 -69 -12 -138 -25z"/>
<path d="M6560 7439 c-25 -6 -82 -16 -128 -24 -86 -14 -132 -35 -132 -59 0
-23 145 -320 163 -335 18 -14 49 -13 187 9 119 18 154 31 158 58 2 15 -5 33
-19 48 -27 28 -75 31 -157 10 -47 -13 -54 -13 -68 2 -15 14 -10 17 56 33 82
19 95 28 86 63 -14 58 -40 64 -161 38 -46 -10 -65 -6 -65 13 0 8 22 15 63 19
128 14 160 33 136 79 -30 58 -40 62 -119 46z"/>
<path d="M7615 7109 c-55 -11 -158 -30 -228 -43 -71 -13 -133 -28 -139 -34 -6
-6 -8 -23 -4 -38 7 -27 7 -27 79 -21 112 9 449 74 458 89 14 22 10 47 -10 58
-25 13 -35 12 -156 -11z"/>
<path d="M7057 7059 c-27 -4 -51 -10 -54 -13 -11 -11 59 -155 78 -161 28 -9
97 13 114 38 23 33 18 64 -17 101 -39 41 -57 46 -121 35z m87 -63 c7 -30 0
-53 -21 -60 -21 -8 -31 0 -38 34 -8 37 0 50 30 50 16 0 25 -7 29 -24z"/>
<path d="M6936 7004 c7 -38 2 -40 -36 -9 -20 16 -58 25 -76 18 -40 -15 21
-163 68 -163 21 0 22 18 3 64 -6 14 2 11 35 -13 47 -34 110 -43 110 -16 0 9
-16 47 -35 85 -26 52 -40 70 -56 70 -18 0 -19 -4 -13 -36z"/>
<path d="M6667 6988 c-26 -19 -34 -110 -13 -143 21 -32 39 -32 64 0 17 22 21
23 38 10 25 -19 73 -19 80 0 7 17 -114 145 -138 145 -8 0 -22 -6 -31 -12z"/>
<path d="M7910 6945 c-21 -25 -6 -71 73 -237 64 -132 80 -158 101 -164 30 -7
293 41 313 57 34 29 -5 99 -55 99 -15 0 -61 -6 -102 -14 -41 -8 -78 -12 -82
-9 -5 2 -36 59 -69 126 -34 67 -68 130 -77 140 -19 21 -85 23 -102 2z"/>
<path d="M7569 6891 c-21 -16 -25 -31 -31 -108 -3 -48 -7 -136 -7 -195 -1 -95
1 -110 19 -128 24 -24 48 -25 95 -6 27 11 35 22 40 49 8 39 12 41 108 52 31 4
57 3 57 -1 0 -5 16 -20 35 -33 36 -24 82 -24 112 0 31 27 13 55 -134 200 -82
80 -161 156 -177 167 -36 27 -86 28 -117 3z m160 -215 c-3 -3 -16 -7 -30 -8
-21 -3 -24 1 -27 37 l-3 40 32 -32 c18 -18 31 -35 28 -37z"/>
<path d="M6417 6887 c-66 -13 -85 -33 -66 -68 10 -20 17 -21 73 -16 33 3 79
12 101 19 35 11 40 17 40 43 0 29 -2 30 -45 32 -25 1 -71 -4 -103 -10z"/>
<path d="M7143 6826 c-66 -12 -128 -28 -137 -35 -17 -14 -22 -61 -7 -76 5 -6
38 -75 75 -154 69 -151 96 -191 130 -191 41 0 279 50 292 61 17 14 18 30 3 63
-19 40 -54 48 -134 31 -89 -19 -111 -19 -119 1 -3 9 -6 17 -6 19 0 1 21 6 48
10 97 13 122 24 122 50 0 14 -13 39 -29 57 l-29 33 -79 -17 c-66 -13 -80 -14
-92 -2 -21 20 -12 24 78 38 116 19 137 44 85 105 -31 37 -35 37 -201 7z"/>
<path d="M6873 6780 c-35 -14 -43 -42 -43 -152 l0 -103 -97 97 c-105 104 -137
121 -178 94 -47 -31 -35 -51 144 -234 145 -147 174 -172 199 -172 69 0 68 -4
77 253 l6 177 -25 25 c-26 26 -46 30 -83 15z"/>
<path d="M5745 6747 c-13 -10 -16 -21 -11 -40 5 -22 12 -27 37 -27 41 0 69 16
69 40 0 35 -60 52 -95 27z"/>
<path d="M6296 6668 c-115 -20 -136 -29 -136 -58 0 -9 27 -71 59 -136 33 -65
70 -145 84 -176 41 -92 49 -94 219 -63 112 20 147 30 161 46 22 28 22 32 -9
68 -30 36 -47 38 -149 16 -50 -10 -73 -11 -82 -3 -27 22 -13 35 48 42 58 7 99
30 99 57 0 6 -15 26 -33 44 l-33 33 -78 -16 c-68 -14 -78 -15 -86 -2 -6 8 -10
18 -10 21 0 4 39 13 88 20 84 13 87 15 90 42 2 16 -5 39 -18 57 -26 36 -51 37
-214 8z"/>
<path d="M5865 6590 c-22 -4 -61 -11 -87 -14 -52 -8 -78 -27 -78 -58 0 -11 34
-98 77 -194 93 -214 117 -238 193 -199 33 17 38 41 16 83 -7 15 -17 37 -20 50
-7 20 -4 22 28 22 26 0 50 -12 100 -50 83 -64 110 -74 144 -58 62 31 51 77
-31 131 -28 17 -55 35 -60 38 -6 4 -1 22 13 44 40 64 4 152 -80 195 -42 21
-135 26 -215 10z m143 -122 c21 -21 13 -44 -20 -55 -77 -26 -76 -26 -98 9 -11
18 -20 36 -20 40 0 6 36 12 101 16 14 1 30 -3 37 -10z"/>
<path d="M5615 5306 c-18 -27 -45 -159 -45 -221 0 -47 9 -55 61 -55 37 0 43
14 63 141 8 52 18 102 21 111 17 44 -73 66 -100 24z"/>
<path d="M3605 4914 c-9 -9 -15 -23 -13 -30 4 -18 196 -105 223 -102 14 2 20
11 20 28 0 20 -13 31 -80 66 -100 52 -128 59 -150 38z"/>
<path d="M3248 4616 c-18 -41 -5 -52 84 -69 45 -9 109 -22 141 -29 55 -12 60
-11 73 7 8 10 14 22 14 27 0 14 -58 38 -157 63 -124 31 -140 31 -155 1z"/>
<path d="M3058 4116 c-21 -48 8 -66 111 -66 25 -1 78 -7 116 -15 67 -13 71
-13 88 7 9 11 17 24 17 30 0 16 -69 38 -168 53 -135 21 -150 20 -164 -9z"/>
<path d="M3475 4039 c-10 -30 13 -45 61 -40 16 1 24 37 11 50 -20 20 -65 13
-72 -10z"/>
<path d="M3083 3719 c-21 -21 -15 -49 12 -59 30 -11 158 -16 174 -6 13 8 15
52 2 60 -5 3 -46 8 -92 12 -63 4 -87 3 -96 -7z"/>
<path d="M3374 3675 c-12 -29 4 -46 38 -43 57 5 48 57 -10 58 -12 0 -25 -7
-28 -15z"/>
<path d="M2968 3359 c-21 -12 -25 -68 -5 -70 30 -3 205 2 229 7 31 6 46 38 28
59 -10 12 -38 15 -124 15 -61 0 -119 -5 -128 -11z"/>
<path d="M3332 3351 c-8 -4 -12 -19 -10 -32 2 -20 9 -24 38 -24 32 0 35 2 35
30 0 25 -4 30 -25 33 -14 1 -31 -2 -38 -7z"/>
<path d="M3293 3014 c-18 -8 -16 -63 2 -70 8 -4 27 -3 41 0 21 6 25 11 22 39
-2 26 -8 32 -28 34 -14 1 -31 -1 -37 -3z"/>
<path d="M3050 2999 c-99 -12 -100 -12 -100 -55 l0 -37 96 7 c120 9 144 17
144 51 0 18 -7 28 -26 35 -14 6 -28 9 -32 9 -4 -1 -41 -5 -82 -10z"/>
<path d="M8578 2413 c7 -3 16 -2 19 1 4 3 -2 6 -13 5 -11 0 -14 -3 -6 -6z"/>
<path d="M8590 2040 c0 -5 5 -10 11 -10 5 0 7 5 4 10 -3 6 -8 10 -11 10 -2 0
-4 -4 -4 -10z"/>
<path d="M8717 8508 c-14 -13 -71 -77 -128 -144 -101 -118 -130 -152 -251
-296 -61 -73 -71 -104 -40 -131 24 -22 51 -21 78 1 11 9 74 80 139 157 66 77
161 189 212 248 51 59 93 116 93 125 0 29 -29 62 -55 62 -13 0 -35 -10 -48
-22z"/>
<path d="M7849 8330 c-25 -15 -32 -58 -14 -86 19 -29 64 -32 88 -6 47 52 -15
127 -74 92z"/>
<path d="M8920 7963 c-190 -105 -297 -176 -372 -243 -61 -54 -68 -72 -42 -108
24 -34 65 -29 117 16 73 63 214 153 432 274 86 48 98 59 98 94 0 30 -26 54
-57 54 -12 0 -91 -39 -176 -87z"/>
<path d="M1090 7837 c-18 -9 -26 -22 -28 -47 -4 -34 5 -43 228 -262 127 -125
240 -230 250 -233 46 -15 88 41 64 85 -18 35 -445 457 -469 464 -11 3 -31 0
-45 -7z"/>
<path d="M3046 7524 c-28 -28 -18 -67 50 -184 90 -155 164 -266 243 -362 36
-44 83 -102 104 -129 42 -54 80 -65 110 -31 30 33 19 59 -74 169 -98 117 -205
273 -289 423 -29 52 -60 103 -68 113 -19 21 -55 22 -76 1z"/>
<path d="M855 7315 c-55 -54 -37 -69 263 -219 147 -73 281 -141 297 -150 40
-21 61 -20 85 4 55 55 14 87 -312 250 -154 77 -287 140 -295 140 -8 0 -25 -11
-38 -25z"/>
<path d="M1412 6442 c-7 -5 -17 -23 -22 -41 -8 -29 -6 -36 16 -58 28 -28 68
-26 92 4 40 53 -30 130 -86 95z"/>
<path d="M8465 6055 c-192 -40 -541 -111 -775 -158 -784 -160 -745 -150 -756
-191 -19 -76 18 -87 178 -53 68 15 200 42 293 61 94 19 404 82 690 140 286 59
549 113 585 121 36 8 91 19 123 25 60 12 97 39 97 72 0 26 -36 58 -62 57 -13
-1 -180 -34 -373 -74z"/>
<path d="M1258 5998 c-9 -7 -26 -45 -37 -83 -35 -120 -98 -180 -234 -225 -49
-15 -74 -52 -59 -84 8 -18 31 -31 93 -51 111 -37 160 -86 190 -188 27 -92 43
-117 74 -117 35 0 58 30 84 111 30 93 89 156 177 187 96 35 109 44 112 80 3
30 0 34 -45 53 -170 73 -208 109 -247 233 -15 46 -34 87 -42 90 -25 9 -49 7
-66 -6z m133 -340 l30 -25 -63 -64 -64 -64 -63 64 -64 64 46 41 c25 23 53 53
62 68 l17 28 34 -44 c18 -24 47 -55 65 -68z"/>
<path d="M8292 5669 c-43 -9 -80 -44 -93 -89 -29 -97 82 -183 175 -135 129 68
60 255 -82 224z"/>
<path d="M8223 5050 c-60 -36 -56 -121 8 -153 29 -14 42 -15 65 -7 49 19 64
39 64 86 0 35 -5 47 -31 68 -37 31 -63 33 -106 6z"/>
<path d="M8883 5059 c-27 -10 -64 -60 -99 -133 -35 -74 -111 -152 -189 -193
-96 -51 -112 -72 -105 -138 3 -30 24 -49 98 -86 92 -46 167 -124 216 -226 26
-54 48 -86 68 -97 27 -17 30 -17 60 1 21 12 44 43 71 96 54 105 123 180 208
222 74 38 109 74 109 114 0 40 -24 67 -91 103 -95 50 -155 110 -199 198 -61
122 -98 157 -147 139z m76 -383 l54 -54 -53 -49 c-29 -26 -54 -47 -57 -46 -2
1 -27 23 -55 48 l-51 45 49 54 c27 30 51 54 54 55 3 1 30 -23 59 -53z"/>
<path d="M1464 4926 c-17 -8 -44 -31 -60 -52 -25 -33 -29 -46 -29 -105 0 -81
18 -112 86 -147 52 -27 105 -25 169 8 107 54 108 228 2 288 -46 25 -119 29
-168 8z"/>
<path d="M1813 4288 c-27 -13 -37 -49 -22 -81 22 -48 95 -37 114 17 8 25 6 31
-18 52 -31 26 -41 28 -74 12z"/>
<path d="M1617 4192 c-22 -24 -22 -66 -1 -87 24 -24 73 -15 97 16 16 23 17 30
7 50 -7 13 -18 27 -24 31 -20 14 -63 8 -79 -10z"/>
<path d="M8686 3914 c-21 -21 -20 -64 2 -80 40 -31 92 -3 92 49 0 43 -62 64
-94 31z"/>
<path d="M1272 3843 c-11 -10 -30 -48 -42 -85 -37 -116 -99 -178 -214 -212
-112 -34 -117 -103 -11 -136 128 -40 184 -96 222 -221 19 -62 30 -83 49 -91
37 -17 71 14 99 90 12 34 34 80 48 101 31 46 104 96 171 116 59 18 86 40 86
71 0 28 -19 47 -62 63 -151 57 -208 114 -249 249 -12 41 -40 72 -65 72 -7 0
-21 -8 -32 -17z m124 -328 l41 -40 -68 -66 -68 -66 -28 39 c-15 22 -42 53 -61
68 l-34 28 61 60 c33 33 61 66 61 73 1 8 13 -2 28 -21 14 -19 45 -53 68 -75z"/>
<path d="M8538 3286 c-16 -8 -24 -22 -26 -47 -2 -29 1 -37 23 -49 23 -12 30
-12 53 1 17 9 28 25 30 42 6 48 -35 75 -80 53z"/>
<path d="M2317 1812 c-21 -23 -22 -66 -1 -86 34 -35 104 -6 104 43 0 54 -68
82 -103 43z"/>
<path d="M27 103 c-25 -4 -27 -8 -27 -54 0 -48 1 -49 30 -49 30 0 30 1 30 55
0 30 -1 54 -2 54 -2 -1 -15 -4 -31 -6z"/>
</g>
</svg>
